HIERARCHY
ROOT joint_Root
{
	OFFSET 0.0 0.0 0.0
	CHANNELS 6 Xposition Yposition Zposition Zrotation Xrotation Yrotation 
	JOINT Hips
	{
		OFFSET -0.726466 93.3139 -2.00062
		CHANNELS 6 Xposition Yposition Zposition Zrotation Xrotation Yrotation 
		JOINT Spine
		{
			OFFSET 15.7357 0.0 0.0
			CHANNELS 6 Xposition Yposition Zposition Zrotation Xrotation Yrotation 
			JOINT Chest
			{
				OFFSET 8.98455 -0.406207 0.0
				CHANNELS 6 Xposition Yposition Zposition Zrotation Xrotation Yrotation 
				JOINT Neck
				{
					OFFSET 16.3773 0.0 0.0
					CHANNELS 6 Xposition Yposition Zposition Zrotation Xrotation Yrotation 
					JOINT Head
					{
						OFFSET 6.45672 0.0 0.0
						CHANNELS 6 Xposition Yposition Zposition Zrotation Xrotation Yrotation 
						End Site
						{
							OFFSET 0.0 0.0 0.0
						}
					}
				}
				JOINT Shoulder_L
				{
					OFFSET 12.9942 -0.242716 4.98039
					CHANNELS 6 Xposition Yposition Zposition Zrotation Xrotation Yrotation 
					JOINT UpperArm_L
					{
						OFFSET 5.34809 0.0 0.0
						CHANNELS 6 Xposition Yposition Zposition Zrotation Xrotation Yrotation 
						JOINT LowerArm_L
						{
							OFFSET 24.3286 1.87007e-05 0.0
							CHANNELS 6 Xposition Yposition Zposition Zrotation Xrotation Yrotation 
							JOINT Hand_L
							{
								OFFSET 22.2916 0.0 0.0
								CHANNELS 6 Xposition Yposition Zposition Zrotation Xrotation Yrotation 
								End Site
								{
									OFFSET 0.0 0.0 0.0
								}
							}
						}
					}
				}
				JOINT Shoulder_R
				{
					OFFSET 12.9945 -0.242716 -4.98039
					CHANNELS 6 Xposition Yposition Zposition Zrotation Xrotation Yrotation 
					JOINT UpperArm_R
					{
						OFFSET -5.34813 0.0 0.0
						CHANNELS 6 Xposition Yposition Zposition Zrotation Xrotation Yrotation 
						JOINT LowerArm_R
						{
							OFFSET -24.3289 0.000322201 0.0
							CHANNELS 6 Xposition Yposition Zposition Zrotation Xrotation Yrotation 
							JOINT Hand_R
							{
								OFFSET -22.2915 -0.000108084 0.0
								CHANNELS 6 Xposition Yposition Zposition Zrotation Xrotation Yrotation 
								End Site
								{
									OFFSET 0.0 0.0 0.0
								}
							}
						}
					}
				}
			}
		}
		JOINT UpperLeg_L
		{
			OFFSET -2.19248 -6.46944 0.0
			CHANNELS 6 Xposition Yposition Zposition Zrotation Xrotation Yrotation 
			JOINT LowerLeg_L
			{
				OFFSET 39.0811 0.0 -1.23785e-05
				CHANNELS 6 Xposition Yposition Zposition Zrotation Xrotation Yrotation 
				JOINT Foot_L
				{
					OFFSET 40.9854 0.0 -1.26872e-05
					CHANNELS 6 Xposition Yposition Zposition Zrotation Xrotation Yrotation 
					JOINT Toes_L
					{
						OFFSET 11.7543 0.0 0.0
						CHANNELS 6 Xposition Yposition Zposition Zrotation Xrotation Yrotation 
						End Site
						{
							OFFSET 0.0 0.0 0.0
						}
					}
				}
			}
		}
		JOINT UpperLeg_R
		{
			OFFSET -2.19251 6.46944 0.0
			CHANNELS 6 Xposition Yposition Zposition Zrotation Xrotation Yrotation 
			JOINT LowerLeg_R
			{
				OFFSET -39.0811 -0.00228153 -0.0401928
				CHANNELS 6 Xposition Yposition Zposition Zrotation Xrotation Yrotation 
				JOINT Foot_R
				{
					OFFSET -40.9854 0.0 0.0
					CHANNELS 6 Xposition Yposition Zposition Zrotation Xrotation Yrotation 
					JOINT Toes_R
					{
						OFFSET -11.7543 0.0 0.0
						CHANNELS 6 Xposition Yposition Zposition Zrotation Xrotation Yrotation 
						End Site
						{
							OFFSET 0.0 0.0 0.0
						}
					}
				}
			}
		}
	}
}
MOTION
Frames:	8
Frame Time:	0.0333333
0.000000 0.000000 0.000000 0.000000 0.000000 -0.000000 94.321900 89.342400 174.888000 -84.853400 35.984800 179.465000 15.735700 0.000005 -0.000001 74.335600 81.192900 -73.635600 8.984550 -0.406207 -0.000000 9.246610 -4.720830 1.781520 16.377300 -0.000001 -0.000001 6.838770 8.902010 -4.303190 6.456720 -0.000001 -0.000000 -0.497511 19.992300 3.713200 12.994200 -0.242716 4.980390 -88.074500 -5.384920 -70.290500 5.348090 -0.000007 -0.000001 -43.899300 34.182200 -42.103200 24.328600 0.000019 0.000005 7.847370 4.267480 -61.635000 22.291600 -0.000001 0.000005 7.938360 5.579560 -10.188100 12.994500 -0.242716 -4.980390 88.310100 3.712940 -65.506300 -5.348130 -0.000001 -0.000004 -66.928600 30.108000 4.453310 -24.328900 0.000322 -0.000009 5.018400 7.486450 -33.984500 -22.291500 -0.000108 -0.000004 -2.602760 5.518590 -7.301850 -2.192480 -6.469440 -0.000000 179.254000 1.060760 3.515180 39.081100 -0.000007 -0.000012 -0.292279 0.568583 27.205900 40.985400 -0.000006 -0.000013 5.397110 -2.625320 -78.356000 11.754300 -0.000000 0.000003 -0.000044 -0.000504 -16.597200 -2.192510 6.469440 -0.000001 174.594000 11.000900 160.059000 -39.081100 -0.002282 -0.040193 0.002535 0.003093 14.437500 -40.985400 0.000008 0.000006 -1.437080 0.654597 -57.441900 -11.754300 -0.000006 -0.000006 -0.023190 -0.184355 -24.111700
0.000000 0.000000 0.000000 0.000000 0.000000 -0.000000 97.006900 88.642000 172.994000 -85.759800 34.012600 179.489000 15.735700 0.000005 -0.000001 72.963800 81.199400 -72.245000 8.984550 -0.406207 -0.000000 9.122440 -5.120680 1.845940 16.377300 -0.000001 -0.000001 6.689450 8.799880 -4.282720 6.456720 -0.000001 -0.000000 -0.687611 19.930300 3.455090 12.994200 -0.242716 4.980390 -88.103900 -5.329380 -70.382900 5.348090 -0.000007 -0.000001 -43.261400 33.350400 -42.629300 24.328600 0.000019 0.000005 7.566740 4.029630 -62.120700 22.291600 -0.000001 0.000005 8.099060 5.581180 -10.275500 12.994500 -0.242716 -4.980390 88.286500 3.745460 -65.395100 -5.348130 -0.000001 -0.000004 -66.328900 29.718400 4.778000 -24.328900 0.000322 -0.000009 4.846620 7.243730 -33.925600 -22.291500 -0.000108 -0.000004 -2.600850 5.517300 -7.246840 -2.192480 -6.469440 -0.000000 -179.914000 0.663088 5.625300 39.081100 -0.000007 -0.000012 -0.295428 0.595207 26.397900 40.985400 -0.000006 -0.000013 5.231830 -0.089802 -80.419300 11.754300 -0.000000 0.000003 -0.000043 -0.000493 -16.596800 -2.192510 6.469440 -0.000001 175.635000 16.018000 159.436000 -39.081100 -0.002282 -0.040193 -0.005763 0.075585 6.870420 -40.985400 0.000008 0.000006 -9.924340 6.345220 -56.611600 -11.754300 -0.000006 -0.000006 -0.024335 -0.190214 -24.353700
0.000000 0.000000 0.000000 0.000000 0.000000 -0.000000 100.089000 87.843700 170.889000 -86.535200 32.194700 179.662000 15.735700 0.000005 -0.000001 71.567800 81.174000 -70.800400 8.984550 -0.406207 -0.000000 9.049700 -5.543350 1.973390 16.377300 -0.000001 -0.000001 6.806900 8.820600 -4.200950 6.456720 -0.000001 -0.000000 -0.770895 19.950000 3.332280 12.994200 -0.242716 4.980390 -88.121600 -5.248040 -70.274700 5.348090 -0.000007 -0.000001 -43.725100 32.792900 -41.670700 24.328600 0.000019 0.000005 7.655020 4.057390 -62.236100 22.291600 -0.000001 0.000005 8.158780 5.582860 -10.366500 12.994500 -0.242716 -4.980390 88.249700 3.815040 -65.332400 -5.348130 -0.000001 -0.000004 -65.399400 29.882600 4.342500 -24.328900 0.000322 -0.000009 4.711170 7.100440 -33.697900 -22.291500 -0.000108 -0.000004 -2.719070 5.515540 -7.172860 -2.192480 -6.469440 -0.000000 -178.823000 0.146377 8.804530 39.081100 -0.000007 -0.000012 -0.226023 0.494759 24.552900 40.985400 -0.000006 -0.000013 5.897910 2.051820 -82.352900 11.754300 -0.000000 0.000003 -0.498825 -0.612233 -16.191200 -2.192510 6.469440 -0.000001 176.698000 17.586500 157.296000 -39.081100 -0.002282 -0.040193 -0.006416 0.079862 6.967770 -40.985400 0.000008 0.000006 -8.502950 6.111320 -58.965600 -11.754300 -0.000006 -0.000006 -0.025480 -0.195948 -24.590800
0.000000 0.000000 0.000000 0.000000 0.000000 -0.000000 103.426000 87.208700 168.691000 -85.568400 30.267500 178.749000 15.735700 0.000005 -0.000001 70.688800 81.195100 -69.348000 8.984550 -0.406207 -0.000000 8.956330 -5.779710 3.133910 16.377300 -0.000001 -0.000001 7.426130 8.735370 -4.283460 6.456720 -0.000001 -0.000000 -1.202940 19.924900 3.577570 12.994200 -0.242716 4.980390 -88.362600 -4.607390 -70.410700 5.348090 -0.000007 -0.000001 -44.513400 32.464400 -39.456900 24.328600 0.000019 0.000005 7.412490 3.984970 -61.890200 22.291600 -0.000001 0.000005 8.288940 5.584570 -10.459500 12.994500 -0.242716 -4.980390 87.998200 4.372450 -65.371100 -5.348130 -0.000001 -0.000004 -63.846100 29.977100 3.217190 -24.328900 0.000322 -0.000009 4.932280 7.508550 -33.446800 -22.291500 -0.000108 -0.000004 -2.790420 5.511410 -6.999900 -2.192480 -6.469440 -0.000000 -176.594000 0.713812 11.216300 39.081100 -0.000007 -0.000012 0.002441 -0.005564 23.690500 40.985400 -0.000006 -0.000013 7.987370 2.539690 -83.129400 11.754300 -0.000000 0.000003 -0.785348 -0.959329 -17.695600 -2.192510 6.469440 -0.000001 178.127000 16.181500 152.686000 -39.081100 -0.002282 -0.040193 -0.002052 0.019854 15.167300 -40.985400 0.000008 0.000006 -5.610020 2.411180 -56.204800 -11.754300 -0.000006 -0.000006 -0.030175 -0.218265 -25.515300
0.000000 0.000000 0.000000 0.000000 0.000000 -0.000000 107.037000 86.675800 166.192000 -84.081100 27.517100 177.484000 15.735700 0.000005 -0.000001 69.709600 81.306200 -67.565000 8.984550 -0.406207 -0.000000 8.694100 -5.982940 4.743680 16.377300 -0.000001 -0.000001 7.901760 8.148850 -4.146430 6.456720 -0.000001 -0.000000 -1.340540 19.628300 3.751910 12.994200 -0.242716 4.980390 -88.717000 -3.718240 -70.947500 5.348090 -0.000007 -0.000001 -45.456300 32.540200 -36.507900 24.328600 0.000019 0.000005 7.237720 4.048430 -60.929800 22.291600 -0.000001 0.000005 8.490880 5.591790 -10.863300 12.994500 -0.242716 -4.980390 87.568600 5.218050 -64.972900 -5.348130 -0.000001 -0.000004 -62.341700 29.242100 2.089230 -24.328900 0.000322 -0.000009 5.061670 7.759430 -33.271800 -22.291500 -0.000108 -0.000004 -2.881450 5.509600 -6.924950 -2.192480 -6.469440 -0.000000 -173.163000 1.898560 11.399900 39.081100 -0.000007 -0.000012 -0.002607 0.005374 25.875800 40.985400 -0.000006 -0.000013 7.282140 4.600810 -80.968200 11.754300 -0.000000 0.000003 -2.495180 -2.775080 -22.499000 -2.192510 6.469440 -0.000001 178.270000 13.109100 149.488000 -39.081100 -0.002282 -0.040193 -0.018646 0.050524 23.492300 -40.985400 0.000008 0.000006 -6.716740 3.741930 -48.852300 -11.754300 -0.000006 -0.000006 -0.041060 -0.264307 -27.433300
0.000000 0.000000 0.000000 0.000000 0.000000 -0.000000 110.793000 86.278700 163.212000 -82.879100 24.888800 177.928000 15.735700 0.000005 -0.000001 70.189700 80.990500 -67.240700 8.984550 -0.406207 -0.000000 9.388180 -6.031150 6.393350 16.377300 -0.000001 -0.000001 7.751700 7.793770 -3.900370 6.456720 -0.000001 -0.000000 -0.950740 19.128900 3.467650 12.994200 -0.242716 4.980390 -88.907700 -3.201110 -71.147600 5.348090 -0.000007 -0.000001 -47.819200 33.405400 -33.012000 24.328600 0.000019 0.000005 7.432630 4.541850 -58.742100 22.291600 -0.000001 0.000005 9.402010 5.600240 -11.356600 12.994500 -0.242716 -4.980390 87.408300 5.536220 -64.864500 -5.348130 -0.000001 -0.000004 -61.421400 27.816900 0.792871 -24.328900 0.000322 -0.000009 4.699570 7.332040 -32.794200 -22.291500 -0.000108 -0.000004 -2.568030 5.508900 -6.896130 -2.192480 -6.469440 -0.000000 -170.271000 3.479290 12.025000 39.081100 -0.000007 -0.000012 -0.005643 0.009779 29.990100 40.985400 -0.000006 -0.000013 7.033470 5.793340 -77.159100 11.754300 -0.000000 0.000003 -0.408792 -0.567404 -27.067100 -2.192510 6.469440 -0.000001 179.090000 12.892900 149.175000 -39.081100 -0.002282 -0.040193 0.013083 -0.016254 31.043700 -40.985400 0.000008 0.000006 -6.197060 0.705788 -49.326900 -11.754300 -0.000006 -0.000006 -0.028409 -0.210077 -25.175700
0.000000 0.000000 0.000000 0.000000 0.000000 -0.000000 114.391000 86.174200 160.085000 -82.620300 23.314700 179.385000 15.735700 0.000005 -0.000001 72.214100 80.589500 -68.852700 8.984550 -0.406207 -0.000000 10.367800 -5.634740 7.234870 16.377300 -0.000001 -0.000001 7.644910 7.738910 -3.440750 6.456720 -0.000001 -0.000000 -0.759710 18.394900 3.342170 12.994200 -0.242716 4.980390 -88.769500 -3.575890 -70.996800 5.348090 -0.000007 -0.000001 -52.705800 34.061300 -28.440100 24.328600 0.000019 0.000005 7.702890 5.368480 -55.327300 22.291600 -0.000001 0.000005 9.434390 5.605380 -11.669000 12.994500 -0.242716 -4.980390 87.509000 5.440860 -65.353600 -5.348130 -0.000001 -0.000004 -61.014500 26.886000 -1.122630 -24.328900 0.000322 -0.000009 4.373720 7.096590 -31.767800 -22.291500 -0.000108 -0.000004 -2.473100 5.507830 -6.851810 -2.192480 -6.469440 -0.000000 -168.435000 3.810810 11.394800 39.081100 -0.000007 -0.000012 0.028091 -0.037452 36.870300 40.985400 -0.000006 -0.000013 7.251960 6.652450 -70.823200 11.754300 -0.000000 0.000003 -0.112207 -0.473896 -36.419700 -2.192510 6.469440 -0.000001 179.711000 14.055500 150.386000 -39.081100 -0.002282 -0.040193 0.069090 -0.084402 37.943000 -40.985400 0.000008 0.000006 -3.506560 1.352520 -54.831500 -11.754300 -0.000006 -0.000006 -0.016400 -0.146462 -22.551000
0.000000 0.000000 0.000000 0.000000 0.000000 -0.000000 117.682000 86.419600 157.130000 -83.304100 21.816400 -178.655000 15.735700 0.000005 -0.000001 74.940900 80.276500 -71.643200 8.984550 -0.406207 -0.000000 11.194600 -4.915580 7.077920 16.377300 -0.000001 -0.000001 7.630220 7.258700 -2.819380 6.456720 -0.000001 -0.000000 -0.726073 17.145600 4.117940 12.994200 -0.242716 4.980390 -88.587300 -4.100600 -70.971800 5.348090 -0.000007 -0.000001 -56.929200 34.871900 -24.408100 24.328600 0.000019 0.000005 6.982590 5.671350 -51.100900 22.291600 -0.000001 0.000005 8.598310 5.601910 -11.456600 12.994500 -0.242716 -4.980390 87.436000 5.676660 -65.642900 -5.348130 -0.000001 -0.000004 -60.248000 27.582300 -3.393730 -24.328900 0.000322 -0.000009 4.505070 7.526500 -31.034100 -22.291500 -0.000108 -0.000004 -1.908600 5.512200 -7.032940 -2.192480 -6.469440 -0.000000 -167.325000 3.507480 8.050250 39.081100 -0.000007 -0.000012 0.099906 -0.095450 46.306000 40.985400 -0.000006 -0.000013 5.912780 7.734250 -60.677500 11.754300 -0.000000 0.000003 -0.116721 -0.484293 -36.879300 -2.192510 6.469440 -0.000001 179.349000 14.827600 153.272000 -39.081100 -0.002282 -0.040193 0.118731 -0.128548 41.929200 -40.985400 0.000008 0.000006 -1.319920 0.585812 -60.117700 -11.754300 -0.000006 -0.000006 -0.009476 -0.099676 -20.633600
